# xmcd CD database file
#
# Track frame offsets:
#	150
#	21643
#	37704
#	51390
#	69136
#	90669
#	105474
#	128511
#	143632
#	173643
#	191287
#	206292
#
# Disc length: 2913 seconds
#
# Revision: 0
# Processed by: cddbd v1.5.2PL0 Copyright (c) Steve Scherf et al.
# Submitted via: CDex 1.81
#
DISCID=910b5f0c
DTITLE=Godboo, Jerome [CDN-13-Sanctuary City-bls) - Sanctuary City
DYEAR=2013
DGENRE=Blues
TTITLE0=Sanctuary City
TTITLE1=She's Got The Goods
TTITLE2=Jerry Stone
TTITLE3=Hidden Things
TTITLE4=Lord Show Me How
TTITLE5=Mon Amie
TTITLE6=October 17
TTITLE7=Why Don't You Love Me?
TTITLE8=New Years Eve
TTITLE9=The Blues Travels Thru Me
TTITLE10=Fortune Teller
TTITLE11=Pollyanna Reed
EXTD=YEAR: 2013
EXTT0=
EXTT1=
EXTT2=
EXTT3=
EXTT4=
EXTT5=
EXTT6=
EXTT7=
EXTT8=
EXTT9=
EXTT10=
EXTT11=
PLAYORDER=
